# xmcd
# 
# Track frame offsets:
#     150
#     21734
#     41367
#     63350
#     84847
# 
# Disc length: 1392
# 
# Revision: 2
# Processed by: cddbd v1.5.2PL0 Copyright (c) Steve Scherf et al.
# Submitted via: BonkEnc v1.0.8
# 
DISCID=36056e05
DTITLE=JYONGRI - Unchanging Love - Kimi Ga Ireba - 
DYEAR=2008
DGENRE=JPop
TTITLE0=Unchanging Love - Kimi Ga Ireba - 
TTITLE1=Trust and Try
TTITLE2=YOUR SONG
TTITLE3=Unchanging Love - Kimi Ga Ireba - Instrumental - 
TTITLE4=Trust and Try - Instrumental - 
EXTD=
EXTT0=
EXTT1=
EXTT2=
EXTT3=
EXTT4=
PLAYORDER=
